<svg width="1993" height="367" viewBox="0 0 1993 367" fill="none" xmlns="http://www.w3.org/2000/svg">
<path d="M278.016 77.5C292.516 67 293.016 45.5 278.516 34.5C269.016 27 258.516 20.5 248.016 16.5C228.016 7.99999 206.016 3.99999 183.016 3.99999C156.016 3.99999 131.516 7.99999 109.516 17C87.0156 25.5 68.0156 37.5 51.5156 53.5C35.5156 69.5 23.0156 89 14.0156 111.5C5.01563 134 0.515625 159 0.515625 187C0.515625 214 5.01563 238.5 14.0156 260.5C23.0156 282.5 35.5156 301.5 51.5156 317.5C68.0156 333 87.0156 345.5 109.516 354C131.516 362.5 156.016 367 183.016 367C208.016 367 232.016 362 254.516 352C267.016 347 278.516 339.5 289.016 330.5C302.016 319 301.016 298 287.016 288L280.516 283C270.016 275.5 255.516 276.5 246.516 285.5C239.016 292 232.016 297.5 224.016 301C211.016 308 197.016 311 183.016 311C165.516 311 149.016 308 134.516 301.5C120.016 295 108.016 286 97.5156 274.5C87.0156 263.5 79.0156 250 73.0156 234C67.5156 218.5 64.5156 201.5 64.5156 183C64.5156 165.5 67.5156 149.5 73.0156 134.5C79.0156 119.5 87.0156 106.5 97.5156 95.5C108.016 84 120.016 75.5 134.516 69C149.016 62.5 165.516 59.5 183.016 59.5C195.516 59.5 207.016 61.5 219.016 66.5C226.516 69 234.016 73.5 241.516 80C251.016 87.5 264.516 87.5 274.016 80.5L278.016 77.5ZM441.277 355.5L558.777 304.5C590.777 290.5 628.277 306 641.277 339C645.777 350.5 656.777 358 669.277 358H670.777C692.777 358 707.777 335.5 698.777 315.5L575.277 31C570.277 20 559.277 12.5 547.277 12.5H534.277C521.777 12.5 510.777 20 506.277 31L383.777 315.5C374.777 335.5 389.777 358 411.777 358H429.277C433.277 358 437.277 357 441.277 355.5ZM569.777 238L534.277 253.5C509.777 264 483.777 240 493.777 214.5L513.777 160.5C523.777 134.5 560.777 134.5 571.277 160.5L585.777 199C591.777 214.5 584.777 231.5 569.777 238ZM891.5 159L800.5 158.5C792.5 158.5 786 165 786 173V324C786 341 800 354.5 816.5 354.5C833.5 354.5 847.5 341 847.5 324V242.5C847.5 225.5 861 212 878 212H891.5C906.5 212 921 211 935.5 209C938 208.5 941 208.5 944 208C947 207.5 949.5 207 952.5 206.5C965.5 203.5 977.5 199 988 193C1000.5 185.5 1011 175.5 1018.5 162C1025.5 148.5 1029.5 131 1029.5 109.5C1029.5 90 1026 74 1019 61C1012 48.5 1002.5 38 991 30.5C979 23 965.5 17.5 950 14C934.5 11 918.5 9.49997 902 9.49997H800.5C791.5 9.49997 784.5 16.5 784.5 25.5V46C784.5 54.5 791.5 62 800.5 62H891.5C899.5 62 908 62.5 917 63.5C925.5 64.5 933.5 66.5 940.5 70C948 73.5 953.5 78.5 958 84.5C963 91 965 99.5 965 110.5C965 125 953.5 159 891.5 159ZM1314.54 61C1328.04 46.5 1324.04 22.5 1306.04 14C1301.54 12 1297.04 10.5 1292.04 8.99998C1275.04 2.99997 1257.54 0.499971 1239.04 0.499971C1223.04 0.499971 1207.54 2.49998 1192.54 6.99998C1177.04 11 1163.54 17.5 1151.54 26C1139.54 34.5 1130.04 45.5 1122.54 58.5C1115.54 71.5 1112.04 87 1112.04 105C1112.04 125.5 1116.04 141.5 1124.04 154C1132.04 166 1142.04 176 1154.04 183C1166.04 190.5 1179.54 196.5 1193.54 200.5C1208.04 205 1221.04 209 1233.54 214C1245.54 218.5 1255.54 224.5 1263.54 231.5C1271.54 238 1275.54 248 1275.54 260.5C1275.54 268.5 1274.04 275.5 1270.54 281.5C1267.04 287.5 1262.04 292.5 1256.04 296C1250.54 300 1244.04 303 1236.54 305C1229.54 307 1222.54 308 1215.04 308C1201.54 308 1188.54 304.5 1176.54 298.5C1172.04 296 1168.04 293.5 1164.04 290.5C1152.54 281.5 1136.04 282.5 1125.54 292.5L1123.04 295C1110.04 307.5 1111.04 330 1126.54 340C1134.54 345.5 1143.04 349.5 1152.04 353C1171.54 360 1192.54 363.5 1213.54 363.5C1230.54 363.5 1246.54 361 1262.04 356.5C1277.54 352 1290.54 345.5 1302.54 336C1314.04 327 1323.04 315.5 1330.04 302C1336.54 288 1340.04 272 1340.04 253C1340.04 232.5 1336.04 216.5 1328.04 204C1320.04 191.5 1309.54 181.5 1297.54 174C1285.54 166.5 1272.54 161 1258.04 156.5C1244.04 152.5 1230.54 148 1218.54 143.5C1206.54 139 1196.54 133.5 1188.54 127.5C1180.04 121 1176.04 112 1176.04 100.5C1176.04 92.5 1178.04 86 1181.04 80.5C1184.54 74.5 1188.54 70 1194.04 66.5C1199.54 63 1205.54 60 1212.04 58.5C1218.54 57 1225.54 56 1233.04 56C1245.04 56 1256.54 58.5 1267.04 62.5C1270.54 64 1273.04 65.5 1276.04 67C1288.04 74.5 1303.04 73 1312.54 63L1314.54 61ZM1422.98 194.5V337.5C1422.98 353 1434.98 365.5 1450.48 365.5H1608.48C1623.98 365.5 1636.48 353 1636.48 337.5C1636.48 322 1623.98 309.5 1608.48 309.5H1511.98C1496.48 309.5 1483.98 297.5 1483.98 282V249.5C1483.98 234.5 1496.48 222 1511.98 222H1608.48C1623.98 222 1636.48 209.5 1636.48 194C1636.48 179 1623.98 166.5 1608.48 166.5L1450.48 167C1434.98 167 1422.98 179.5 1422.98 194.5ZM1450.48 75.5H1608.98C1624.48 75.5 1636.98 63 1636.98 47.5C1636.98 32.5 1624.48 20 1608.98 20H1450.48C1434.98 20 1422.98 32.5 1422.98 47.5C1422.98 63 1434.98 75.5 1450.48 75.5ZM1825.25 92.5V327C1825.25 342.5 1837.75 354.5 1853.25 354.5H1859.25C1874.25 354.5 1886.75 342.5 1886.75 327V92.5C1886.75 77.5 1899.25 65 1914.75 65H1964.75C1980.25 65 1992.75 52.5 1992.75 37C1992.75 21.5 1980.25 9.49997 1964.75 9.49997H1747.25C1731.75 9.49997 1719.75 21.5 1719.75 37C1719.75 52.5 1731.75 65 1747.25 65H1797.75C1812.75 65 1825.25 77.5 1825.25 92.5Z" fill="#464646"/>
</svg>
